<svg viewBox="0 0 242.1 124" height="50">
  <g>
    <path d="m55.49997,21.335c0,0 1,0 2,0c0,0 2,0 3,0c1,0 3,0 4,0c2,0 3,0 5,0c2,0 3,0 4,0c1,0 2,0 3,0c1,0 2,0 3,0c0,0 1,0 2,0c1,0 2,0 2,0c1,0 2,0 2,0c1,0 1.29289,-0.29289 2,-1c0.7071,-0.7071 2,0 2,0c1,0 2,0 2,0c0,-1 1,-1 2,-1c0,0 1,0 2,0c0,0 0,0 1,0c1,0 1,0 2,0c1,0 1,0 2,0c1,0 1.07612,0.38268 2,0c1.30656,-0.5412 1,-1 2,-1c1,0 1,0 2,0c1,0 1,1 1,1c0,1 0,2 0,2c0,1 0,2 0,2c0,1 0,2 0,2c-1,0 -2,0 -2,0c-2,0 -2,0 -3,0c-1,0 -2,0 -3,0c0,0 -2,0 -2,0c-1,0 -2,0 -2,0c-1,0 -2,0 -2,0c-1,0 -2,0 -2,0c-1,0 -2,0 -2,0c0,1 -1.29289,0.2929 -2,1c-0.70711,0.70711 0,1 0,2c0,1 0,1 0,2c0,1 0,1 0,2c0,1 0,1 0,2c0,1 0.38268,1.07612 0,2c-0.54119,1.30656 -1,1 -1,2c0,1 0,1 0,2c0,1 -1,1 -1,1c0,1 0,2 0,2c0,1 0,2 0,2c-1,0 -1,1 -1,2c0,0 0,1 0,2c0,0 0,1 0,2c0,0 0,1 0,2c0,0 0,1 0,2c0,0 -1,1 -1,2c0,0 0,1 0,2c0,0 0,1 0,2c0,0 0,1 0,2c0,0 0,1 0,2c0,0 0,1 0,2c0,0 0,1 0,2c0,0 0,1 0,2c0,0 0,1 0,2c0,0 0,1 0,2c0,0 0,1 0,2c0,0 0,1 0,2c0,0 0,0 1,0c1,0 0.69344,0.4588 2,1c0.92388,0.38268 2,0 3,0c0,0 2,0 2,0c1,0 2,0 2,0c1,0 2,0 2,0c1,0 2,0 2,0c1,0 2,0 2,0c1,0 2,0 2,0c1,0 2,0 2,0c1,0 2,0 2,0c1,0 2,0 2,0c1,0 2,0 2,0c1,0 2,0 2,0c1,0 2,0 2,0c0,1 0,1 0,2c0,1 0,1 0,2c0,1 0,1 0,1c0,1 0,2 0,2c-1,0 -1,1 -1,2c0,0 -0.29289,0.29289 -1,1c-0.70711,0.70711 0,1 0,2c0,0.99999 0,0.99999 0,0.99999c-1,0 -1.29289,0.29289 -2,1c-0.70711,0.70711 -2,0 -2,0c-2,0 -2,0 -4,0c0,0 -2,0 -3,0c-1,0 -1,0 -3,0c0,0 -1,0 -2,0c0,0 -2,0 -2,0c-1,0 -2,0 -3,0c-1,0 -2,0 -3,0c-2,0 -3,0 -4,0c-2,0 -2,1 -3,1c-1,0 -1,0 -2,0c-1,0 -1,0 -2,0c-1,0 -1,0 -2,0c-1,0 -2,0 -3,0c0,0 -1,0 -2,0c0,0 -1,0 -2,0c0,0 -1,0 -2,0c0,0 -1,0 -2,0c0,0 -1,0 -2,0c0,0 -1,0 -2,0c0,0 -1,0 -2,0c0,0 -1,0 -2,0c0,0 0,0 0,-1c0,-1 0.7071,-1.29289 0,-1.99999c-0.70711,-0.70711 -1,-1 -2,-1c0,0 0,-1 0,-2c0,0 -0.29289,-0.29289 -1,-1c-0.70711,-0.70711 -1,-1 -1,-1c0,0 0,-1 0,-2c0,0 0,0 1,0c1,0 1,0 3,0c0,0 1,0 2,0c0,0 1,0 2,0c0,0 1,0 2,0c0,0 1,0 2,0c0,0 0.29289,-0.29289 1,-1c0.70711,-0.70711 1,0 2,0c1,0 1.29289,0.70711 2,0c0.70711,-0.70711 -0.38268,-1.07612 0,-2c0.5412,-1.30656 1,-1 1,-2c0,0 0,-1 0,-1c1,-1 1,-2 1,-2c1,0 1,-1 1,-2c0,0 0,-1 0,-2c0,0 0,-1 0,-2c0,0 0,-1 0,-2c0,0 1,0 1,-1c0,-1 0,-1 0,-2c0,-1 0,-1 0,-2c0,-1 0,-1 0,-2c0,-1 0,-1 0,-2c0,-1 0.45881,-0.69344 1,-2c0.38268,-0.92388 0,-1 0,-2c0,-1 0,-1 0,-2c0,-1 0,-1 0,-2c0,-1 0,-1 0,-2c0,0 0,-1 0,-1c0,-1 0,-2 0,-2c0,-1 0,-2 1,-2c0,0 0,-1 0,-2c0,0 0,-1 1,-2c0,0 0,-1 0,-2c0,0 0,-1 0,-2c0,0 0,-1 0,-2c0,0 0,-1 0,-2c0,0 0,-1 0,-2c0,0 0,-1 -1,-1c-1,0 -1,0 -2,0c-1,0 -1,0 -2,0c-1,0 -1,0 -2,0c-1,0 -1,0 -2,0c-1,0 -1,0 -2,0c-1,0 -1,0 -2,0c-1,0 -1,0 -2,0c-1,0 -1,0 -1,-1c0,0 -0.29289,-0.29289 -1,-1c-0.70711,-0.70711 0.70711,-1.29289 0,-2c-0.70711,-0.70711 -1,-1 -1,-1l0,-1l0,0l0,-1" id="svg_4" stroke="#000" fill="none"/>
  <path d="m143.49996,13.335c1,0 0.29289,0.29289 1,1c0.70712,0.70711 1.00001,0 1.00001,1c0,1 1,1 1,1c0,1 0,2 0,3c0,1 0,1 0,2c0,1 0,1 0,2c0,1 0,1 0,2c0,1 0,1 0,2c0,1 0,1 0,2c0,1 0,1 0,2c0,1 0,1 0,2c0,1 0,1 0,2c0,1 0,2 0,3c0,0 0,1 0,2c0,0 0,1 0,2c0,1 -0.29289,1.29289 -1,2c-0.70711,0.70711 0.38269,2.07612 0,3c-0.5412,1.30657 -1.00001,1 -1.00001,3c0,0 0,1 -1,2c0,0 -0.4588,0.69344 -1,2c-0.38268,0.92388 0,2 0,2c0,1 0,2 0,2c0,1 -0.29289,1.2929 -1,2c-0.70711,0.70711 0,2 0,2c-1,0 -1,1 -1,2c0,0 0,1 0,2c0,0 -1,0 -1,1c0,1 -1,1 -1,1c0,1 0,2 0,2c0,1 0,2 0,2c0,1 -0.61732,2.07612 -1,3c-0.5412,1.30656 -1,3 -1,3c0,2 -0.4588,1.69344 -1,3c-0.38268,0.92388 -0.4588,0.69344 -1,2c-0.38268,0.92388 0,1 0,2c0,1 0,1 0,2c0,1 -0.4588,0.69344 -1,2c-0.38268,0.92387 -0.4588,0.69343 -1,1.99999c-0.38268,0.92388 0,1 0,2c0,0 0,1 0,1c-1,0 -1,1 -1,2c0,0 -1.70711,0.29289 -1,1c0.70711,0.70711 2,0 2,0c2,0 2,0 3,0c1,0 1,0 3,0c0,0 1,0 2,0c0,0 1,0 2,0c0,0 1,0 2,0c0,0 1.00001,0 2.00001,0c0,0 0,-1 1,-1c0,0 0,-1 1,-2c0,0 0,-1 0,-2c0,0 0,-1 0,-2c0,0 1,0 1,-0.99999c0,-1 0,-1 0,-2c0,-1 0.29289,-1.29289 1,-2c0.70711,-0.70711 0,-1 0,-2c0,-1 -0.70711,-1.29289 0,-2c0.70711,-0.70711 1,-1 1,-1c0,-1 0,-2 1,-2c0,0 0,-1 0,-2c0,0 0,0 0,-1c0,-1 -0.70711,-1.29289 0,-2c0.70711,-0.70711 1,-1 1,-1c0,-1 0,-2 0,-2c0,-1 0,-2 0,-2c0,-1 0,-2 0,-2c0,-1 0,-2 0,-2c1,0 1,-1 1,-1c1,0 2,0 2,0c0,-1 1,-1 2,-1c0,0 0,0 1,0c1,0 1,-1 2,-1c1,0 1,-1 2,-1c1,0 1,0 1,0c1,0 2,0 2,-1c0,0 1,0 2,0c0,0 0.29289,-0.29289 1,-1c0.70711,-0.70711 1,0 2,0c0,0 1,0 1,0c0,0 1,2 1,2c0,1 1,2 1,2c0,1 0,2 0,2c0,1 0,2 0,2c0,1 0,2 0,2c0,1 0,2 0,2c0,1 0,2 0,2c0,1 0,2 0,2c0,1 0,2 0,2c0,1 0,2 0,2c0,1 0,2 0,2c0,1 0,2 0,2c0,1 0,2 0,2c0,1 0,2 0,2c0,1 0,2 0,2c0,1 1,1 1,1.99999c0,0 0,1 0,2c0,0 1,0 1,1c0,1 0,1 0,2c0,0 0,1 0,1c1,0 2,0 2,0c0,1 1,1 2,1c0,0 1,0 2,0c0,0 1,0 2,0c0,0 1,0 2,0c0,0 1,0 2,0c0,0 1,0 2,0c0,0 1.29289,0.70711 2,0c0.70711,-0.70711 0,-1 0,-2c0,-1 0,-1 0,-2c0,-1 0,-1 0,-2c0,-1 0,-1 0,-1.99999c0,-1 0,-1 0,-2c0,-1 0,-1 0,-2c0,-1 0,-1 0,-2c0,-1 0,-1 0,-2c0,-1 0,-1 0,-2c0,-1 0,-1 0,-2c0,-1 0,-1 0,-2c0,-1 0,-1 0,-2c0,-1 0,-1 0,-2c0,-1 0,-1 0,-2c0,-1 0.38269,-1.07612 0,-2c-0.5412,-1.30656 -1,-1 -1,-2c0,-1 0,-1 0,-2c0,-1 0.70711,-1.29289 0,-2c-0.70711,-0.70711 -1,-1 -1,-1c0,-1 0,-2 0,-2c0,-1 0,-2 0,-2c0,-1 -1,-2 -1,-2c0,-1 0,-2 0,-2c0,-1 0,-2 0,-2c0,-1 0,-2 0,-2c-1,0 -1,-1 -1,-2c0,0 0,-1 0,-2c0,0 0,-1 0,-1c0,-1 0,-1 0,-2c0,-1 0,-1 0,-2c0,-1 0.70711,-2.29289 0,-3c-0.70711,-0.70711 -1,0 -1,-1c0,-1 0,-1 0,-2c0,-1 0,-1 0,-2c0,-1 -0.29289,-0.29289 -1,-1c-0.70711,-0.70711 0,-2 0,-2c0,-1 0,-2 0,-2c0,-1 0,-2 0,-2c0,-1 0,-2 0,-3c0,-1 0,-1 0,-2c0,-1 0.70711,-1.29289 0,-2c-0.70711,-0.70711 -2,0 -2,0c-1,0 -2,0 -2,0c-1,0 -1,-1 -2,-1c0,0 -1,0 -2,0c0,0 -1,0 -2,0c0,0 0,1 0,2c0,0 0,1 0,2c0,0 0,1 0,2c0,0 0,1 0,2c0,0 0,1 0,2c0,0 0,1 0,2c0,0 0,1 0,2c0,0 -1,0 -1,1c0,1 0,1 0,2c0,1 0.70711,1.29289 0,2c-0.70711,0.70711 -1,1 -1,1c0,1 0,2 0,2c0,1 0,1 0,2c0,0 0,1 0,2c0,0 0.70711,1.29289 0,2c-0.70711,0.70711 -1,0 -1,1c0,1 0,1 0,2c0,1 -1,1 -1,1c-1,0 -2,0 -2,0c0,0 -1,0 -2,0c0,0 -1,0 -2,0c0,0 -1,0 -1,0c-1,0 -1,0 -2,0c-1,0 -1,0 -2,0c-1,0 -1,0 -2,0c-1,0 -1,-1 -1,-1c-1,0 -2,0 -2,0c-1,0 -1,-1 -1,-1c0,-2 0,-2 0,-3c0,-1 0,-1 0,-2c0,-1 0,-1 0,-2c0,-1 0,-1 0,-2c0,-1 0,-1 0,-2c0,-1 0,-1 0,-2c0,-1 0,-1 0,-2c0,-1 0,-1 0,-2c0,-1 -0.29289,-0.29289 -1,-1c-0.70711,-0.70711 0,-2 0,-2c0,-1 0,-2 0,-2c0,-1 0,-2 0,-2c0,-1 0,-2 0,-2c0,-1 0,-2 0,-2c0,0 0,-1 0,-2c0,0 0,-1 0,-2c0,0 0,-1 -1,-1c-1,0 -1,0 -2,0c-1,0 -1,0 -2,0c-1,0 -1,0 -2,0l-1,0l0,0l-1,0" id="svg_7" stroke="#000" fill="none"/>
  </g>
</svg>